# xmcd
#
# Track frame offsets:
#	150
#	15537
#	25392
#	40807
#	54770
#	67190
#	86610
#	101595
#	115157
#	128760
#	146187
#	161272
#	173942
#	188267
#
# Disc length: 2706
#
# Revision: 2
# Processed by: cddbd v1.5.1PL0 Copyright (c) Steve Scherf et al.
# Submitted via: DiscPlay 4.0.4
# Normalized: r1:DSETVAR1
#
DISCID=b10a900e
DTITLE=Various Artist - Mr. Music Country 6/96
DYEAR=1900
DGENRE=
TTITLE0=Wesley Dennis - Idon't know (But I've been told)
TTITLE1=Dale Watson - Girl, I hope you're having fun
TTITLE2=Somebody's darling - Somebody's darlign
TTITLE3=The Derailers - My heart's ready
TTITLE4=Dale Cole - Rock onsolid ground
TTITLE5=Larry Joe Taylor and Christine Albert - My kind af padre
TTITLE6=Angela Lidin - No more
TTITLE7=Arnold Sanford - God save the queen
TTITLE8=Tom T. Hall - Levi Jones
TTITLE9=Terri Clark - Suddenly single
TTITLE10=Keith Stegall - Every time it rains (Lord don't it pour)
TTITLE11=Sheryl Lynn - Straighten up and love right
TTITLE12=Jacob Lyda - Long black veil
TTITLE13=Owne O'Shaughnessy - The avenues of america
EXTD=
EXTT0=
EXTT1=
EXTT2=
EXTT3=
EXTT4=
EXTT5=
EXTT6=
EXTT7=
EXTT8=
EXTT9=
EXTT10=
EXTT11=
EXTT12=
EXTT13=
PLAYORDER=
